<svg width="24" height="28" viewBox="0 0 24 28" fill="none" xmlns="http://www.w3.org/2000/svg">
<path d="M21 14.625V7.5C21 5.3998 21 4.3497 20.5913 3.54754C20.2317 2.84193 19.6581 2.26825 18.9525 1.90873C18.1503 1.5 17.1002 1.5 15 1.5H7C4.8998 1.5 3.8497 1.5 3.04754 1.90873C2.34193 2.26825 1.76825 2.84193 1.40873 3.54754C1 4.3497 1 5.3998 1 7.5V20.5C1 22.6002 1 23.6503 1.40873 24.4525C1.76825 25.1581 2.34193 25.7317 3.04754 26.0913C3.8497 26.5 4.89974 26.5 6.99982 26.5H11.625M13.5 12.75H6M8.5 17.75H6M16 7.75H6M14.75 22.75L18.5 26.5M18.5 26.5L22.25 22.75M18.5 26.5V19" stroke="#8A6BE1" stroke-width="2" strokeLinecap="round" strokeLinejoin="round"/>
</svg>
